<svg width="1724" height="1073" viewBox="0 0 1724 1073" fill="none" xmlns="http://www.w3.org/2000/svg">
<g clip-path="url(#clip0_19_79)">
<path opacity="0.0144928" d="M1703.23 1137.65C1712.29 1142.45 1723.43 1140.69 1730.55 1133.32L1956.89 899.239C1961.1 894.881 1963.42 889.036 1963.35 882.974L1957.73 416.909C1957.67 412.142 1956.14 407.511 1953.33 403.656L1713.19 73.5491C1708.1 66.5593 1699.53 63.0105 1690.99 64.3627L1410.54 108.782C1402 110.134 1394.94 116.159 1392.27 124.378L1265.88 512.537C1264.41 517.07 1264.38 521.95 1265.79 526.501L1404.47 971.491C1406.28 977.279 1410.29 982.12 1415.65 984.963L1703.23 1137.65Z" stroke="url(#paint0_linear_19_79)" stroke-width="4"/>
<path opacity="0.0289855" d="M1652.08 1136.16C1660.86 1141.4 1672.04 1140.23 1679.53 1133.27L1916.45 913.326C1920.9 909.195 1923.53 903.473 1923.78 897.408L1942.61 435.976C1942.8 431.198 1941.5 426.478 1938.89 422.473L1717.81 83.4959C1713.09 76.2653 1704.73 72.2841 1696.14 73.1865L1415.43 102.69C1406.84 103.593 1399.49 109.227 1396.38 117.28L1250.6 494.815C1248.88 499.276 1248.59 504.162 1249.78 508.795L1364.13 956.229C1365.64 962.111 1369.4 967.16 1374.61 970.275L1652.08 1136.16Z" stroke="url(#paint1_linear_19_79)" stroke-width="4"/>
<path opacity="0.0434783" d="M1601.32 1133.12C1609.8 1138.79 1620.99 1138.2 1628.83 1131.68L1875.47 926.325C1880.14 922.435 1883.09 916.853 1883.65 910.8L1926.43 455.271C1926.88 450.496 1925.82 445.7 1923.41 441.555L1721.66 94.7879C1717.32 87.3362 1709.19 82.9347 1700.58 83.3859L1420.39 98.0697C1411.78 98.5209 1404.15 103.749 1400.61 111.613L1236.22 477.569C1234.25 481.944 1233.7 486.824 1234.65 491.526L1324.8 940.088C1326 946.049 1329.51 951.293 1334.56 954.673L1601.32 1133.12Z" stroke="url(#paint2_linear_19_79)" stroke-width="4"/>
<path opacity="0.057971" d="M1551.04 1128.56C1559.19 1134.64 1570.37 1134.64 1578.52 1128.56L1834.02 938.218C1838.91 934.581 1842.15 929.155 1843.04 923.131L1909.19 474.737C1909.89 469.977 1909.09 465.117 1906.88 460.841L1724.67 107.37C1720.72 99.7173 1712.83 94.9087 1704.22 94.9087L1425.34 94.9087C1416.73 94.9087 1408.84 99.7173 1404.9 107.37L1222.68 460.841C1220.48 465.117 1219.67 469.977 1220.37 474.737L1286.53 923.131C1287.42 929.155 1290.66 934.581 1295.54 938.218L1551.04 1128.56Z" stroke="url(#paint3_linear_19_79)" stroke-width="4"/>
<path opacity="0.0724638" d="M1501.32 1122.54C1509.13 1129 1520.25 1129.58 1528.7 1123.97L1792.16 948.99C1797.24 945.616 1800.77 940.363 1801.98 934.386L1890.89 494.313C1891.85 489.582 1891.29 484.671 1889.3 480.274L1726.77 121.184C1723.22 113.351 1715.6 108.149 1707.02 107.699L1430.2 93.1922C1421.62 92.7423 1413.5 97.1189 1409.15 104.538L1209.97 444.672C1207.54 448.837 1206.47 453.663 1206.92 458.468L1249.35 905.423C1249.92 911.494 1252.89 917.088 1257.58 920.974L1501.32 1122.54Z" stroke="url(#paint4_linear_19_79)" stroke-width="4"/>
<path opacity="0.0869565" d="M1452.22 1115.08C1459.67 1121.91 1470.72 1123.07 1479.43 1117.94L1749.95 958.63C1755.22 955.531 1759.03 950.465 1760.55 944.551L1871.53 513.941C1872.73 509.253 1872.43 504.303 1870.66 499.796L1727.9 136.169C1724.76 128.177 1717.43 122.597 1708.9 121.7L1434.9 92.9015C1426.36 92.004 1418.03 95.9375 1413.3 103.103L1198.05 429.102C1195.39 433.143 1194.06 437.922 1194.27 442.759L1213.29 887.031C1213.55 893.133 1216.22 898.881 1220.73 903.006L1452.22 1115.08Z" stroke="url(#paint5_linear_19_79)" stroke-width="4"/>
<path opacity="0.101449" d="M1403.83 1106.24C1410.91 1113.42 1421.83 1115.15 1430.78 1110.51L1707.46 967.13C1712.89 964.315 1716.98 959.453 1718.81 953.618L1851.1 533.564C1852.56 528.931 1852.52 523.955 1850.97 519.35L1728.01 152.26C1725.29 144.13 1718.27 138.19 1709.8 136.848L1439.35 94.013C1430.88 92.6718 1422.37 96.1522 1417.26 103.043L1186.88 414.168C1183.99 418.071 1182.41 422.79 1182.37 427.647L1178.38 868.022C1178.32 874.139 1180.71 880.026 1185 884.381L1403.83 1106.24Z" stroke="url(#paint6_linear_19_79)" stroke-width="4"/>
<path opacity="0.115942" d="M1356.21 1096.08C1362.89 1103.59 1373.68 1105.88 1382.84 1101.74L1664.74 974.485C1670.33 971.964 1674.67 967.32 1676.82 961.581L1829.63 553.123C1831.34 548.559 1831.55 543.57 1830.24 538.877L1727.04 169.391C1724.74 161.145 1718.05 154.861 1709.67 153.08L1443.48 96.4996C1435.11 94.7196 1426.44 97.7384 1420.98 104.335L1176.42 399.903C1173.32 403.658 1171.48 408.302 1171.18 413.166L1144.65 848.465C1144.28 854.58 1146.36 860.592 1150.44 865.166L1356.21 1096.08Z" stroke="url(#paint7_linear_19_79)" stroke-width="4"/>
<path opacity="0.130435" d="M1309.42 1084.65C1315.7 1092.46 1326.32 1095.3 1335.66 1091.68L1621.87 980.695C1627.59 978.477 1632.19 974.064 1634.64 968.438L1807.12 572.562C1809.07 568.079 1809.55 563.091 1808.47 558.321L1724.96 187.492C1723.08 179.152 1716.73 172.542 1708.47 170.329L1447.23 100.33C1438.97 98.1178 1430.17 100.668 1424.37 106.951L1166.63 386.341C1163.32 389.935 1161.23 394.492 1160.68 399.35L1112.12 828.43C1111.43 834.528 1113.2 840.648 1117.05 845.43L1309.42 1084.65Z" stroke="url(#paint8_linear_19_79)" stroke-width="4"/>
<path opacity="0.144928" d="M1263.54 1072C1269.4 1080.09 1279.81 1083.47 1289.31 1080.37L1578.89 985.763C1584.74 983.854 1589.57 979.687 1592.32 974.19L1783.58 591.824C1785.78 587.437 1786.51 582.462 1785.68 577.628L1721.7 206.493C1720.25 198.081 1714.26 191.164 1706.14 188.526L1450.52 105.471C1442.41 102.833 1433.49 104.908 1427.38 110.862L1157.47 373.511C1153.96 376.933 1151.63 381.389 1150.82 386.228L1080.81 807.988C1079.8 814.051 1081.26 820.265 1084.87 825.244L1263.54 1072Z" stroke="url(#paint9_linear_19_79)" stroke-width="4"/>
<path opacity="0.15942" d="M1218.61 1058.2C1224.04 1066.55 1234.22 1070.46 1243.84 1067.88L1535.89 989.695C1541.83 988.102 1546.89 984.193 1549.93 978.84L1759.03 610.856C1761.47 606.576 1762.46 601.628 1761.87 596.741L1717.24 226.32C1716.22 217.858 1710.6 210.653 1702.65 207.599L1453.3 111.882C1445.34 108.828 1436.34 110.424 1429.92 116.03L1148.9 361.441C1145.19 364.679 1142.62 369.021 1141.56 373.829L1050.72 787.21C1049.4 793.223 1050.54 799.515 1053.9 804.677L1218.61 1058.2Z" stroke="url(#paint10_linear_19_79)" stroke-width="4"/>
<path opacity="0.173913" d="M1174.69 1043.31C1179.68 1051.9 1189.61 1056.32 1199.32 1054.27L1492.9 992.498C1498.94 991.229 1504.21 987.589 1507.53 982.396L1733.5 629.602C1736.16 625.442 1737.42 620.536 1737.07 615.608L1711.53 246.898C1710.95 238.408 1705.72 230.937 1697.94 227.475L1455.48 119.524C1447.71 116.062 1438.66 117.176 1431.95 122.42L1140.86 350.155C1136.97 353.199 1134.16 357.415 1132.85 362.178L1021.87 766.167C1020.24 772.113 1021.06 778.466 1024.16 783.8L1174.69 1043.31Z" stroke="url(#paint11_linear_19_79)" stroke-width="4"/>
<path opacity="0.188406" d="M1131.84 1027.4C1136.36 1036.2 1146.02 1041.12 1155.8 1039.61L1450 994.187C1456.11 993.245 1461.58 989.887 1465.18 984.869L1706.99 648.012C1709.88 643.985 1711.4 639.132 1711.3 634.176L1704.56 268.15C1704.4 259.655 1699.57 251.938 1692 248.081L1457.02 128.35C1449.45 124.493 1440.37 125.123 1433.4 129.99L1133.32 339.677C1129.25 342.516 1126.22 346.592 1124.66 351.298L994.271 744.93C992.329 750.793 992.826 757.192 995.652 762.684L1131.84 1027.4Z" stroke="url(#paint12_linear_19_79)" stroke-width="4"/>
<path opacity="0.202899" d="M1090.09 1010.54C1094.15 1019.52 1103.5 1024.92 1113.32 1023.95L1407.25 994.777C1413.4 994.166 1419.05 991.1 1422.92 986.272L1679.55 666.035C1682.66 662.153 1684.43 657.366 1684.59 652.394L1696.29 290C1696.56 281.522 1692.14 273.581 1684.8 269.34L1457.86 138.315C1450.51 134.073 1441.42 134.22 1434.22 138.696L1126.23 330.024C1122 332.65 1118.74 336.574 1116.93 341.209L967.911 723.571C965.664 729.336 965.835 735.762 968.384 741.4L1090.09 1010.54Z" stroke="url(#paint13_linear_19_79)" stroke-width="4"/>
<path opacity="0.217391" d="M1049.49 992.793C1053.08 1001.95 1062.1 1007.8 1071.92 1007.36L1364.69 994.286C1370.88 994.009 1376.7 991.246 1380.82 986.621L1651.19 683.621C1654.51 679.896 1656.53 675.19 1656.95 670.214L1686.69 312.37C1687.39 303.93 1683.4 295.788 1676.3 291.175L1457.93 149.366C1450.83 144.754 1441.77 144.418 1434.34 148.492L1119.54 321.216C1115.16 323.618 1111.68 327.379 1109.63 331.931L942.792 702.16C940.245 707.81 940.087 714.249 942.353 720.017L1049.49 992.793Z" stroke="url(#paint14_linear_19_79)" stroke-width="4"/>
<path opacity="0.231884" d="M1010.07 974.241C1013.19 983.532 1021.85 989.827 1031.65 989.921L1322.39 992.735C1328.59 992.795 1334.56 990.343 1338.94 985.936L1621.94 700.725C1625.47 697.167 1627.74 692.555 1628.41 687.588L1675.77 335.18C1676.89 326.801 1673.33 318.479 1666.49 313.51L1457.2 161.453C1450.36 156.483 1441.35 155.667 1433.72 159.327L1113.2 313.266C1108.68 315.435 1105 319.021 1102.7 323.477L918.905 680.766C916.065 686.286 915.578 692.721 917.553 698.606L1010.07 974.241Z" stroke="url(#paint15_linear_19_79)" stroke-width="4"/>
<path opacity="0.246377" d="M971.872 954.955C974.51 964.359 982.799 971.072 992.546 971.697L1280.39 990.149C1286.6 990.546 1292.7 988.414 1297.31 984.238L1591.84 717.3C1595.57 713.922 1598.09 709.415 1599.01 704.47L1663.49 358.352C1665.04 350.055 1661.91 341.577 1655.35 336.266L1455.61 174.519C1449.05 169.207 1440.11 167.915 1432.32 171.152L1107.17 306.185C1102.52 308.115 1098.64 311.514 1096.11 315.862L896.241 659.459C893.114 664.835 892.297 671.248 893.977 677.235L971.872 954.955Z" stroke="url(#paint16_linear_19_79)" stroke-width="4"/>
<path opacity="0.26087" d="M934.919 935.01C937.072 944.502 944.967 951.611 954.632 952.761L1238.76 986.554C1244.94 987.29 1251.16 985.485 1256 981.552L1560.93 733.304C1564.85 730.117 1567.6 725.729 1568.78 720.818L1649.86 381.807C1651.82 373.613 1649.14 365.003 1642.88 359.365L1453.12 188.507C1446.86 182.869 1438.02 181.106 1430.07 183.912L1101.4 299.984C1096.63 301.666 1092.56 304.867 1089.8 309.095L874.784 638.307C871.377 643.523 870.232 649.898 871.611 655.973L934.919 935.01Z" stroke="url(#paint17_linear_19_79)" stroke-width="4"/>
<path opacity="0.275362" d="M899.235 914.482C900.902 924.036 908.384 931.518 917.938 933.185L1197.53 981.981C1203.68 983.054 1210 981.583 1215.04 977.905L1529.24 748.697C1533.33 745.709 1536.32 741.453 1537.75 736.589L1634.87 405.466C1637.24 397.395 1635.01 388.676 1629.06 382.729L1449.69 203.357C1443.74 197.41 1435.02 195.184 1426.95 197.551L1095.83 294.669C1090.97 296.095 1086.71 299.089 1083.72 303.184L854.515 617.376C850.837 622.418 849.366 628.738 850.439 634.886L899.235 914.482Z" stroke="url(#paint18_linear_19_79)" stroke-width="4"/>
<path opacity="0.289855" d="M864.839 893.447C866.02 903.038 873.07 910.869 882.486 913.046L1156.77 976.461C1162.86 977.87 1169.26 976.738 1174.5 973.326L1496.8 763.439C1501.07 760.662 1504.29 756.549 1505.97 751.744L1618.52 429.25C1621.29 421.324 1619.52 412.52 1613.9 406.281L1445.28 219.011C1439.66 212.772 1431.09 210.089 1422.92 212.012L1090.43 290.243C1085.47 291.408 1081.05 294.184 1077.84 298.134L835.413 596.731C831.472 601.585 829.677 607.834 830.441 614.039L864.839 893.447Z" stroke="url(#paint19_linear_19_79)" stroke-width="4"/>
<path opacity="0.304348" d="M831.747 871.983C832.442 881.586 839.045 889.74 848.294 892.417L1116.51 970.029C1122.52 971.77 1128.99 970.982 1134.41 967.847L1463.67 777.494C1468.09 774.937 1471.54 770.98 1473.46 766.247L1600.83 453.082C1603.98 445.32 1602.67 436.455 1597.4 429.943L1439.86 235.403C1434.59 228.891 1426.19 225.762 1417.94 227.236L1085.14 286.708C1080.11 287.606 1075.52 290.154 1072.1 293.949L817.452 576.436C813.258 581.088 811.143 587.249 811.595 593.496L831.747 871.983Z" stroke="url(#paint20_linear_19_79)" stroke-width="4"/>
<path opacity="0.318841" d="M799.967 850.166C800.178 859.757 806.318 868.209 815.374 871.373L1076.79 962.72C1082.71 964.79 1089.22 964.35 1094.81 961.502L1429.88 790.83C1434.45 788.502 1438.11 784.712 1440.28 780.064L1581.79 476.886C1585.33 469.307 1584.47 460.405 1579.56 453.639L1433.4 252.473C1428.48 245.706 1420.28 242.142 1411.98 243.164L1079.91 284.062C1074.82 284.689 1070.09 287 1066.46 290.628L800.601 556.551C796.165 560.988 793.734 567.046 793.872 573.319L799.967 850.166Z" stroke="url(#paint21_linear_19_79)" stroke-width="4"/>
<path opacity="0.333333" d="M769.505 828.075C769.235 837.627 774.901 846.351 783.736 849.99L1037.66 954.573C1043.47 956.967 1050.01 956.878 1055.76 954.326L1395.47 803.415C1400.18 801.324 1404.05 797.713 1406.46 793.161L1561.43 500.585C1565.34 493.208 1564.94 484.294 1560.39 477.293L1425.87 270.154C1421.33 263.153 1413.35 259.165 1405.02 259.734L1074.71 282.302C1069.57 282.653 1064.69 284.719 1060.87 288.169L784.829 537.136C780.161 541.346 777.42 547.284 777.243 553.567L769.505 828.075Z" stroke="url(#paint22_linear_19_79)" stroke-width="4"/>
<path opacity="0.347826" d="M740.363 805.785C739.618 815.274 744.795 824.242 753.386 828.342L999.155 945.628C1004.84 948.341 1011.39 948.604 1017.27 946.356L1360.5 815.221C1365.33 813.375 1369.4 809.954 1372.05 805.51L1539.76 524.107C1544.02 516.95 1544.09 508.047 1539.92 500.832L1417.26 288.381C1413.1 281.166 1405.36 276.768 1397.02 276.883L1069.47 281.421C1064.3 281.492 1059.3 283.305 1055.28 286.567L770.101 518.248C765.213 522.219 762.167 528.021 761.674 534.299L740.363 805.785Z" stroke="url(#paint23_linear_19_79)" stroke-width="4"/>
<path opacity="0.362319" d="M712.537 783.372C711.322 792.775 716.002 801.96 724.323 806.504L961.313 935.928C966.85 938.952 973.387 939.568 979.393 937.633L1325.01 826.221C1329.96 824.628 1334.21 821.407 1337.1 817.084L1516.81 547.378C1521.42 540.459 1521.93 531.591 1518.16 524.183L1407.54 307.089C1403.77 299.681 1396.29 294.887 1387.98 294.549L1064.16 281.41C1058.97 281.199 1053.86 282.752 1049.66 285.815L756.378 499.941C751.282 503.661 747.938 509.312 747.13 515.57L712.537 783.372Z" stroke="url(#paint24_linear_19_79)" stroke-width="4"/>
<path opacity="0.376812" d="M686.019 760.911C684.342 770.204 688.515 779.578 696.544 784.55L924.164 925.515C929.539 928.843 936.046 929.813 942.158 928.196L1289.05 836.395C1294.09 835.06 1298.53 832.05 1301.64 827.859L1492.6 570.33C1497.54 563.665 1498.51 554.855 1495.13 547.276L1396.71 326.211C1393.33 318.632 1386.14 313.457 1377.88 312.67L1058.72 282.258C1053.53 281.763 1048.32 283.049 1043.95 285.904L743.618 482.267C738.326 485.727 734.692 491.211 733.569 497.433L686.019 760.911Z" stroke="url(#paint25_linear_19_79)" stroke-width="4"/>
<path opacity="0.391304" d="M660.798 738.477C658.667 747.637 662.327 757.171 670.04 762.552L887.74 914.434C892.935 918.058 899.394 919.38 905.595 918.087L1252.66 845.72C1257.79 844.65 1262.4 841.861 1265.73 837.814L1467.16 592.893C1472.42 586.498 1473.84 577.77 1470.87 570.041L1384.75 345.682C1381.78 337.952 1374.89 332.414 1366.7 331.181L1053.12 283.952C1047.94 283.172 1042.65 284.184 1038.12 286.822L731.777 465.276C726.304 468.464 722.388 473.768 720.952 479.937L660.798 738.477Z" stroke="url(#paint26_linear_19_79)" stroke-width="4"/>
<path opacity="0.405797" d="M636.859 716.142C634.283 725.146 637.424 734.813 644.8 740.583L852.069 902.732C857.067 906.642 863.459 908.314 869.732 907.35L1215.9 854.181C1221.1 853.382 1225.88 850.822 1229.42 846.93L1440.53 615.002C1446.09 608.892 1447.95 600.269 1445.4 592.412L1371.65 365.435C1369.1 357.578 1362.53 351.693 1354.44 350.019L1047.32 286.476C1042.16 285.409 1036.8 286.143 1032.12 288.555L720.809 449.013C715.168 451.921 710.979 457.03 709.234 463.132L636.859 716.142Z" stroke="url(#paint27_linear_19_79)" stroke-width="4"/>
<path opacity="0.42029" d="M614.18 693.977C611.171 702.803 613.789 712.573 620.808 718.712L817.174 890.455C821.96 894.641 828.266 896.659 834.594 896.029L1178.82 861.762C1184.08 861.238 1189 858.918 1192.75 855.191L1412.75 636.594C1418.6 630.783 1420.89 622.288 1418.76 614.325L1357.42 385.404C1355.28 377.442 1349.05 371.23 1341.08 369.122L1041.26 289.811C1036.15 288.459 1030.73 288.909 1025.91 291.086L710.666 433.522C704.871 436.141 700.419 441.041 698.366 447.06L614.18 693.977Z" stroke="url(#paint28_linear_19_79)" stroke-width="4"/>
<path opacity="0.434783" d="M592.739 672.051C589.308 680.678 591.4 690.522 598.044 697.008L783.078 877.651C787.637 882.102 793.839 884.463 800.203 884.17L1141.46 868.453C1146.77 868.208 1151.83 866.135 1155.78 862.584L1383.86 657.607C1389.97 652.11 1392.69 643.764 1390.98 635.719L1342.05 405.525C1340.34 397.48 1334.46 390.96 1326.64 388.426L1034.91 293.937C1029.86 292.301 1024.39 292.463 1019.45 294.399L701.295 418.844C695.362 421.165 690.657 425.843 688.302 431.764L592.739 672.051Z" stroke="url(#paint29_linear_19_79)" stroke-width="4"/>
<path opacity="0.449275" d="M572.507 650.43C568.667 658.838 570.234 668.728 576.484 675.537L749.8 864.37C754.118 869.073 760.195 871.771 766.58 871.817L1103.89 874.244C1109.23 874.283 1114.41 872.464 1118.55 869.099L1353.89 677.986C1360.26 672.813 1363.39 664.638 1362.11 656.533L1325.55 425.732C1324.27 417.627 1318.77 410.82 1311.11 407.869L1028.23 298.833C1023.25 296.914 1017.76 296.786 1012.69 298.471L692.645 405.015C686.588 407.031 681.641 411.475 678.989 417.282L572.507 650.43Z" stroke="url(#paint30_linear_19_79)" stroke-width="4"/>
<path opacity="0.463768" d="M553.454 629.18C549.219 637.349 550.26 647.256 556.101 654.366L717.357 850.659C721.418 855.602 727.354 858.631 733.74 859.017L1066.14 879.131C1071.5 879.455 1076.79 877.898 1081.12 874.73L1322.91 697.674C1329.51 692.838 1333.05 684.855 1332.19 676.713L1307.94 445.963C1307.08 437.822 1301.96 430.749 1294.5 427.391L1021.18 304.474C1016.29 302.275 1010.79 301.853 1005.62 303.283L684.661 392.068C678.496 393.774 673.319 397.97 670.374 403.65L553.454 629.18Z" stroke="url(#paint31_linear_19_79)" stroke-width="4"/>
<path opacity="0.478261" d="M535.545 608.364C530.93 616.275 531.448 626.17 536.865 633.556L685.76 836.569C689.552 841.738 695.328 845.09 701.697 845.818L1028.28 883.111C1033.63 883.722 1039.03 882.434 1043.53 879.471L1290.95 716.621C1297.77 712.131 1301.7 704.361 1301.27 696.205L1289.22 466.155C1288.79 458 1284.07 450.683 1276.81 446.93L1013.73 310.834C1008.95 308.358 1003.44 307.641 998.181 308.809L677.287 380.035C671.029 381.424 665.634 385.362 662.404 390.899L535.545 608.364Z" stroke="url(#paint32_linear_19_79)" stroke-width="4"/>
<path opacity="0.492754" d="M518.742 588.04C513.763 595.676 513.763 605.531 518.742 613.167L655.022 822.148C658.531 827.529 664.13 831.198 670.465 832.265L990.348 886.183C995.689 887.083 1001.18 886.07 1005.84 883.321L1258.07 734.778C1265.09 730.645 1269.4 723.106 1269.4 714.96L1269.4 486.247C1269.4 478.101 1265.09 470.563 1258.07 466.429L1005.84 317.886C1001.18 315.138 995.689 314.124 990.348 315.025L670.465 368.942C664.13 370.01 658.531 373.678 655.022 379.059L518.742 588.04Z" stroke="url(#paint33_linear_19_79)" stroke-width="4"/>
<path opacity="0.507246" d="M503.004 568.267C497.678 575.61 497.165 585.398 501.695 593.258L625.149 807.448C628.364 813.026 633.768 817.001 640.05 818.407L952.401 888.35C957.713 889.54 963.274 888.807 968.097 886.281L1224.33 752.102C1231.53 748.332 1236.2 741.045 1236.63 732.93L1248.51 506.181C1248.94 498.066 1245.05 490.33 1238.29 485.828L997.481 325.6C992.949 322.585 987.494 321.274 982.087 321.902L664.136 358.813C657.742 359.555 651.951 362.943 648.171 368.154L503.004 568.267Z" stroke="url(#paint34_linear_19_79)" stroke-width="4"/>
<path opacity="0.521739" d="M488.288 549.097C482.631 556.132 481.613 565.825 485.683 573.882L596.146 792.518C599.055 798.276 604.249 802.547 610.46 804.29L914.488 889.619C919.755 891.098 925.378 890.65 930.345 888.356L1189.78 768.55C1197.14 765.153 1202.17 758.133 1203.01 750.073L1226.58 525.898C1227.42 517.838 1223.97 509.927 1217.48 505.074L988.616 333.946C984.234 330.669 978.828 329.062 973.368 329.413L658.242 349.666C651.805 350.08 645.837 353.179 641.794 358.206L488.288 549.097Z" stroke="url(#paint35_linear_19_79)" stroke-width="4"/>
<path opacity="0.536232" d="M474.547 530.583C468.578 537.294 467.062 546.866 470.665 555.093L568.015 777.406C570.608 783.328 575.574 787.886 581.696 789.962L876.658 889.998C881.866 891.765 887.536 891.606 892.638 889.551L1154.49 784.086C1161.98 781.067 1167.34 774.333 1168.61 766.35L1203.61 545.342C1204.88 537.359 1201.86 529.298 1195.66 524.11L979.22 342.891C975.003 339.36 969.66 337.457 964.16 337.528L652.723 341.52C646.258 341.603 640.127 344.402 635.831 349.233L474.547 530.583Z" stroke="url(#paint36_linear_19_79)" stroke-width="4"/>
<path opacity="0.550725" d="M461.732 512.771C455.47 519.145 453.467 528.57 456.595 536.94L540.756 762.163C543.023 768.232 547.746 773.063 553.762 775.468L838.96 889.499C844.094 891.552 849.797 891.686 855.022 889.877L1118.5 798.676C1126.12 796.04 1131.8 789.608 1133.47 781.724L1179.65 564.462C1181.33 556.577 1178.76 548.391 1172.87 542.884L969.266 352.402C965.228 348.624 959.964 346.427 954.439 346.214L647.517 334.386C641.042 334.136 634.763 336.629 630.223 341.251L461.732 512.771Z" stroke="url(#paint37_linear_19_79)" stroke-width="4"/>
<path opacity="0.565217" d="M449.792 495.707C443.257 501.731 440.778 510.983 443.425 519.468L514.364 746.835C516.297 753.034 520.761 758.126 526.653 760.855L801.442 888.134C806.487 890.471 812.208 890.901 817.545 889.345L1081.89 812.291C1089.61 810.041 1095.59 803.926 1097.67 796.162L1154.73 583.204C1156.81 575.44 1154.69 567.153 1149.13 561.346L958.728 362.444C954.884 358.427 949.714 355.94 944.177 355.441L642.563 328.273C636.096 327.691 629.684 329.869 624.91 334.27L449.792 495.707Z" stroke="url(#paint38_linear_19_79)" stroke-width="4"/>
<path opacity="0.57971" d="M438.673 479.431C431.884 485.094 428.943 494.148 431.106 502.72L488.833 731.472C490.426 737.781 494.616 743.121 500.367 746.168L764.152 885.921C769.092 888.539 774.816 889.267 780.255 887.97L1044.71 824.903C1052.51 823.044 1058.78 817.261 1061.25 809.638L1128.87 601.52C1131.35 593.897 1129.68 585.535 1124.47 579.448L947.585 372.981C943.947 368.735 938.888 365.96 933.353 365.173L637.801 323.188C631.358 322.272 624.829 324.129 619.833 328.298L438.673 479.431Z" stroke="url(#paint39_linear_19_79)" stroke-width="4"/>
<path opacity="0.594203" d="M428.32 463.981C421.298 469.272 417.908 478.104 419.585 486.735L464.155 716.119C465.399 722.521 469.303 728.094 474.895 731.451L727.133 882.879C731.953 885.773 737.667 886.801 743.194 885.769L1007.04 836.492C1014.89 835.025 1021.43 829.586 1024.29 822.126L1102.12 619.363C1104.99 611.903 1103.77 603.491 1098.92 597.144L935.814 383.977C932.397 379.512 927.463 376.453 921.944 375.378L633.17 319.131C626.768 317.884 620.138 319.413 614.93 323.339L428.32 463.981Z" stroke="url(#paint40_linear_19_79)" stroke-width="4"/>
<path opacity="0.608696" d="M418.676 449.39C411.443 454.301 407.62 462.889 408.81 471.55L440.32 700.822C441.21 707.298 444.813 713.089 450.23 716.749L690.431 879.029C695.117 882.195 700.805 883.524 706.408 882.761L968.931 847.04C976.825 845.965 983.601 840.883 986.842 833.604L1074.51 636.69C1077.75 629.412 1077 620.975 1072.51 614.39L923.397 395.395C920.215 390.721 915.422 387.383 909.934 386.019L628.609 316.101C622.265 314.525 615.55 315.722 610.142 319.394L418.676 449.39Z" stroke="url(#paint41_linear_19_79)" stroke-width="4"/>
<path opacity="0.623188" d="M409.683 435.69C402.26 440.212 398.02 448.533 398.725 457.197L417.311 685.626C417.843 692.156 421.134 698.15 426.359 702.103L654.088 874.395C658.625 877.827 664.272 879.456 669.939 878.968L930.453 856.531C938.366 855.85 945.367 851.134 948.973 844.058L1046.09 653.459C1049.69 646.383 1049.39 637.947 1045.29 631.145L910.319 407.196C907.383 402.324 902.745 398.713 897.302 397.061L624.059 314.094C617.79 312.191 611.006 313.051 605.411 316.46L409.683 435.69Z" stroke="url(#paint42_linear_19_79)" stroke-width="4"/>
<path opacity="0.637681" d="M401.282 422.906C393.689 427.032 389.051 435.067 389.273 443.706L395.115 670.574C395.284 677.139 398.251 683.318 403.268 687.555L618.146 869.003C622.518 872.695 628.109 874.624 633.828 874.415L891.672 864.957C899.584 864.667 906.79 860.328 910.748 853.472L1016.89 669.633C1020.85 662.777 1021 654.367 1017.3 647.371L896.564 419.342C893.887 414.284 889.42 410.407 884.037 408.467L619.459 313.101C613.281 310.874 606.446 311.394 600.677 314.53L401.282 422.906Z" stroke="url(#paint43_linear_19_79)" stroke-width="4"/>
<path opacity="0.652174" d="M393.412 411.061C385.672 414.786 380.654 422.514 380.398 431.1L373.712 655.708C373.516 662.287 376.149 668.635 380.943 673.145L582.643 862.881C586.837 866.825 592.357 869.054 598.114 869.126L852.653 872.31C860.543 872.409 867.933 868.456 872.23 861.839L986.958 685.175C991.255 678.557 991.86 670.198 988.561 663.031L882.122 431.793C879.714 426.563 875.433 422.426 870.123 420.2L614.752 313.11C608.682 310.564 601.813 310.741 595.882 313.596L393.412 411.061Z" stroke="url(#paint44_linear_19_79)" stroke-width="4"/>
<path opacity="0.666667" d="M386.012 400.173C378.147 403.494 372.768 410.897 372.041 419.403L353.083 641.068C352.52 647.642 354.808 654.14 359.365 658.912L547.617 856.058C551.618 860.248 557.053 862.774 562.835 863.131L813.462 878.59C821.311 879.074 828.863 875.515 833.485 869.153L956.343 700.053C960.966 693.691 962.017 685.408 959.131 678.093L866.981 444.51C864.855 439.121 860.773 434.733 855.552 432.222L609.882 314.105C603.935 311.246 597.048 311.079 590.97 313.645L386.012 400.173Z" stroke="url(#paint45_linear_19_79)" stroke-width="4"/>
<path opacity="0.681159" d="M379.02 390.26C371.052 393.171 365.334 400.232 364.143 408.631L333.204 626.694C332.275 633.241 334.21 639.872 338.514 644.893L513.104 848.568C516.898 852.995 522.233 855.815 528.027 856.459L774.162 883.797C781.951 884.662 789.644 881.502 794.576 875.411L925.092 714.237C930.023 708.147 931.515 699.965 929.05 692.527L851.135 457.454C849.301 451.92 845.433 447.289 840.314 444.498L604.79 316.069C598.984 312.903 592.096 312.389 585.885 314.659L379.02 390.26Z" stroke="url(#paint46_linear_19_79)" stroke-width="4"/>
<path opacity="0.695652" d="M372.374 381.33C364.326 383.831 358.29 390.535 356.644 398.8L314.052 612.621C312.757 619.123 314.33 625.867 318.368 631.124L479.137 840.444C482.711 845.098 487.929 848.21 493.723 849.142L734.819 887.936C742.528 889.176 750.34 886.421 755.565 880.618L893.251 727.702C898.476 721.9 900.4 713.842 898.36 706.305L834.578 470.585C833.045 464.92 829.405 460.056 824.403 456.987L599.424 318.979C593.774 315.513 586.902 314.653 580.571 316.621L372.374 381.33Z" stroke="url(#paint47_linear_19_79)" stroke-width="4"/>
<path opacity="0.710145" d="M366.013 373.392C357.906 375.483 351.575 381.814 349.484 389.921L295.6 598.886C293.94 605.321 295.145 612.159 298.904 617.639L445.747 831.722C449.088 836.593 454.176 839.992 459.956 841.214L695.496 891.018C703.107 892.627 711.016 890.28 716.517 884.779L860.871 740.425C866.372 734.924 868.719 727.015 867.11 719.404L817.307 483.863C816.084 478.084 812.685 472.996 807.814 469.654L593.731 322.812C588.251 319.053 581.413 317.848 574.978 319.508L366.013 373.392Z" stroke="url(#paint48_linear_19_79)" stroke-width="4"/>
<path opacity="0.724638" d="M359.875 366.45C351.731 368.13 345.128 374.076 342.605 381.999L277.82 585.522C275.8 591.869 276.631 598.781 280.098 604.469L412.963 822.437C416.059 827.516 421.002 831.197 426.754 832.71L656.254 893.054C663.75 895.025 671.734 893.088 677.493 887.902L828.001 752.385C833.76 747.199 836.521 739.461 835.344 731.801L799.32 497.249C798.417 491.371 795.272 486.07 790.545 482.461L587.66 327.539C582.365 323.497 575.578 321.948 569.054 323.294L359.875 366.45Z" stroke="url(#paint49_linear_19_79)" stroke-width="4"/>
<path opacity="0.73913" d="M353.897 360.504C345.738 361.775 338.887 367.323 335.947 375.04L260.684 572.559C258.306 578.799 258.758 585.765 261.922 591.646L380.814 812.63C383.651 817.904 388.434 821.863 394.145 823.666L617.156 894.062C624.518 896.386 632.554 894.861 638.554 890.003L794.692 763.565C800.691 758.706 803.853 751.162 803.111 743.478L780.62 510.705C780.044 504.743 777.165 499.242 772.597 495.37L581.161 333.132C576.066 328.814 569.347 326.924 562.748 327.952L353.897 360.504Z" stroke="url(#paint50_linear_19_79)" stroke-width="4"/>
<path opacity="0.753623" d="M348.021 355.549C339.868 356.415 332.793 361.556 329.45 369.042L244.161 560.028C241.431 566.141 241.5 573.14 244.35 579.197L349.322 802.339C351.889 807.796 356.498 812.027 362.154 814.12L578.259 894.061C585.471 896.728 593.538 895.616 599.758 891.097L760.995 773.951C767.215 769.432 770.766 762.103 770.457 754.421L761.209 524.19C760.967 518.163 758.367 512.473 753.97 508.345L574.188 339.556C569.307 334.973 562.673 332.745 556.016 333.452L348.021 355.549Z" stroke="url(#paint51_linear_19_79)" stroke-width="4"/>
<path opacity="0.768116" d="M342.186 351.579C334.06 352.044 326.786 356.768 323.056 364.002L228.217 547.956C225.142 553.921 224.825 560.932 227.351 567.15L318.51 791.605C320.796 797.233 325.216 801.729 330.805 804.11L539.623 893.074C546.667 896.076 554.743 895.374 561.164 891.204L726.961 783.535C733.383 779.364 737.308 772.272 737.432 764.616L741.092 537.666C741.19 531.592 738.881 525.726 734.669 521.348L566.697 346.776C562.044 341.94 555.51 339.377 548.81 339.76L342.186 351.579Z" stroke="url(#paint52_linear_19_79)" stroke-width="4"/>
<path opacity="0.782609" d="M336.332 348.584C328.255 348.652 320.806 352.953 316.708 359.914L212.821 536.367C209.408 542.165 208.704 549.167 210.896 555.528L288.399 780.47C290.392 786.256 294.61 791.009 300.118 793.677L501.302 891.129C508.164 894.453 516.226 894.161 522.829 890.349L692.642 792.307C699.245 788.495 703.529 781.659 704.082 774.055L720.278 551.098C720.721 544.994 718.714 538.965 714.699 534.345L558.645 354.755C554.232 349.676 547.816 346.784 541.088 346.842L336.332 348.584Z" stroke="url(#paint53_linear_19_79)" stroke-width="4"/>
<path opacity="0.797101" d="M330.404 346.548C322.395 346.227 314.797 350.098 310.349 356.766L197.938 525.284C194.195 530.896 193.104 537.867 194.954 544.354L259.005 768.977C260.696 774.907 264.697 779.91 270.11 782.862L463.351 888.255C470.014 891.889 478.042 892.002 484.805 888.556L658.088 800.264C664.851 796.818 669.479 790.257 670.455 782.73L698.775 564.447C699.568 558.332 697.873 552.154 694.069 547.301L549.994 363.452C545.833 358.143 539.551 354.928 532.811 354.658L330.404 346.548Z" stroke="url(#paint54_linear_19_79)" stroke-width="4"/>
<path opacity="0.811594" d="M324.344 345.454C316.423 344.751 308.702 348.189 303.924 354.545L183.533 514.729C179.47 520.135 177.992 527.055 179.492 533.649L230.342 757.169C231.721 763.228 235.492 768.472 240.798 771.706L425.82 884.485C432.272 888.417 440.243 888.93 447.146 885.857L623.351 807.405C630.254 804.332 635.206 798.065 636.601 790.639L676.594 577.677C677.741 571.57 676.368 565.258 672.787 560.18L540.705 372.827C536.808 367.3 530.677 363.768 523.94 363.17L324.344 345.454Z" stroke="url(#paint55_linear_19_79)" stroke-width="4"/>
<path opacity="0.826087" d="M318.098 345.282C310.285 344.205 302.465 347.207 297.379 353.235L169.57 504.719C165.198 509.901 163.335 516.748 164.479 523.431L202.424 745.089C203.481 751.262 207.009 756.738 212.195 760.251L388.759 879.853C394.985 884.07 402.88 884.978 409.9 882.283L588.48 813.732C595.501 811.037 600.76 805.08 602.565 797.78L653.748 590.754C655.252 584.674 654.21 578.244 650.865 572.949L530.745 382.835C527.124 377.103 521.157 373.261 514.441 372.335L318.098 345.282Z" stroke="url(#paint56_linear_19_79)" stroke-width="4"/>
<path opacity="0.84058" d="M311.613 346.007C303.926 344.567 296.034 347.131 290.662 352.815L156.013 495.27C151.343 500.21 149.098 506.963 149.881 513.716L175.259 732.782C175.986 739.054 179.259 744.752 184.311 748.539L352.214 874.398C358.202 878.886 366 880.181 373.117 877.869L553.525 819.251C560.642 816.938 566.189 811.307 568.395 804.156L630.254 603.644C632.115 597.61 631.414 591.077 628.315 585.576L520.083 393.43C516.747 387.507 510.961 383.363 504.28 382.111L311.613 346.007Z" stroke="url(#paint57_linear_19_79)" stroke-width="4"/>
<path opacity="0.855072" d="M304.84 347.604C297.297 345.81 289.358 347.938 283.722 353.263L142.824 486.397C137.87 491.078 135.248 497.715 135.664 504.518L148.855 720.293C149.244 726.648 152.249 732.557 157.155 736.614L316.229 868.161C321.967 872.906 329.647 874.58 336.839 872.652L518.534 823.968C525.726 822.041 531.54 816.751 534.137 809.773L606.126 616.313C608.346 610.346 607.994 603.726 605.153 598.028L508.69 404.566C505.648 398.466 500.058 394.03 493.428 392.453L304.84 347.604Z" stroke="url(#paint58_linear_19_79)" stroke-width="4"/>
<path opacity="0.869565" d="M297.729 350.042C290.347 347.907 282.386 349.599 276.511 354.552L129.967 478.11C124.743 482.515 121.748 489.015 121.794 495.849L123.217 707.666C123.26 714.086 125.985 720.196 130.732 724.518L280.845 861.184C286.322 866.17 293.866 868.214 301.111 866.674L483.554 827.894C490.799 826.354 496.859 821.419 499.835 814.636L581.383 628.73C583.962 622.85 583.966 616.16 581.394 610.277L496.54 416.194C493.803 409.932 488.423 405.213 481.858 403.313L297.729 350.042Z" stroke="url(#paint59_linear_19_79)" stroke-width="4"/>
<path opacity="0.884058" d="M290.234 353.29C283.03 350.825 275.072 352.085 268.982 356.656L117.405 470.419C111.925 474.532 108.564 480.874 108.237 487.718L98.3453 694.945C98.0365 701.414 100.469 707.713 105.046 712.295L246.099 853.513C251.306 858.725 258.694 861.128 265.97 859.975L448.632 831.045C455.909 829.892 462.193 825.324 465.534 818.758L556.045 640.864C558.982 635.092 559.349 628.349 557.056 622.292L483.612 428.265C481.186 421.857 476.03 416.864 469.547 414.646L290.234 353.29Z" stroke="url(#paint60_linear_19_79)" stroke-width="4"/>
<path opacity="0.898551" d="M282.312 357.312C275.301 354.531 267.371 355.364 261.091 359.543L105.099 463.331C99.379 467.137 95.66 473.3 94.9592 480.134L74.2404 682.175C73.5738 688.675 75.7035 695.152 80.0974 699.988L212.027 845.193C216.954 850.615 224.169 853.366 231.455 852.601L413.813 833.434C421.099 832.668 427.584 828.477 431.276 822.149L530.133 652.687C533.425 647.043 534.162 640.265 532.158 634.046L469.886 440.728C467.779 434.189 462.86 428.934 456.474 426.4L282.312 357.312Z" stroke="url(#paint61_linear_19_79)" stroke-width="4"/>
<path opacity="0.913043" d="M273.922 362.072C267.118 358.988 259.24 359.401 252.795 363.179L93.012 456.85C87.0696 460.334 83.0015 466.298 81.9261 473.101L50.899 669.4C49.8695 675.913 51.6849 682.554 55.8842 687.638L178.661 836.275C183.299 841.89 190.323 844.977 197.597 844.595L379.14 835.081C386.413 834.7 393.076 830.896 397.103 824.826L503.67 664.171C507.314 658.676 508.426 651.881 506.721 645.511L455.345 453.531C453.565 446.877 448.895 441.372 442.621 438.528L273.922 362.072Z" stroke="url(#paint62_linear_19_79)" stroke-width="4"/>
<path opacity="0.927536" d="M265.025 367.53C258.442 364.159 250.64 364.159 244.057 367.53L81.1077 450.979C74.9603 454.128 70.5531 459.872 69.1038 466.625L28.3156 656.664C26.9189 663.171 28.4096 669.964 32.4027 675.289L146.027 826.807C150.371 832.599 157.188 836.008 164.428 836.008L344.653 836.008C351.893 836.008 358.711 832.599 363.054 826.807L476.679 675.289C480.672 669.964 482.163 663.171 480.766 656.664L439.978 466.625C438.528 459.872 434.121 454.128 427.974 450.979L265.025 367.53Z" stroke="url(#paint63_linear_19_79)" stroke-width="4"/>
<path opacity="0.942029" d="M255.585 373.646C249.237 370.003 241.533 369.599 234.838 372.559L69.3492 445.718C63.0154 448.518 58.2804 454.023 56.4588 460.705L6.48225 644.009C4.71473 650.492 5.87066 657.423 9.64623 662.982L114.153 816.841C118.196 822.793 124.791 826.51 131.976 826.887L310.394 836.237C317.579 836.614 324.526 833.606 329.169 828.11L449.186 686.017C453.522 680.884 455.396 674.111 454.316 667.479L423.774 479.955C422.661 473.12 418.527 467.15 412.521 463.703L255.585 373.646Z" stroke="url(#paint64_linear_19_79)" stroke-width="4"/>
<path opacity="0.956522" d="M245.571 380.376C239.468 376.477 231.885 375.68 225.105 378.225L57.7 441.065C51.1993 443.505 46.1489 448.752 43.9579 455.341L-14.6115 631.478C-16.7526 637.917 -15.9411 644.973 -12.394 650.758L83.0598 806.43C86.7964 812.524 93.154 816.534 100.263 817.282L276.4 835.794C283.509 836.542 290.562 833.941 295.483 828.757L421.217 696.332C425.89 691.411 428.151 684.678 427.395 677.935L406.727 493.469C405.953 486.569 402.104 480.387 396.253 476.648L245.571 380.376Z" stroke="url(#paint65_linear_19_79)" stroke-width="4"/>
<path opacity="0.971014" d="M234.952 387.676C229.106 383.538 221.665 382.359 214.826 384.489L46.1241 437.016C39.4766 439.085 34.1244 444.055 31.568 450.531L-34.9787 619.112C-37.4954 625.488 -37.0374 632.654 -33.7294 638.657L52.765 795.627C56.1917 801.846 62.2984 806.133 69.3113 807.244L242.706 834.707C249.719 835.818 256.851 833.627 262.032 828.772L392.8 706.213C397.801 701.525 400.451 694.852 400.027 688.01L388.832 507.116C388.402 500.167 384.848 493.787 379.165 489.764L234.952 387.676Z" stroke="url(#paint66_linear_19_79)" stroke-width="4"/>
<path opacity="0.985507" d="M223.702 395.501C218.122 391.14 210.844 389.593 203.972 391.307L34.5873 433.564C27.814 435.254 22.1747 439.928 19.2581 446.27L-54.6335 606.952C-57.5271 613.244 -57.4313 620.505 -54.3728 626.719L23.2846 784.486C26.3984 790.812 32.2416 795.361 39.1382 796.826L209.346 833.005C216.243 834.471 223.431 832.693 228.848 828.18L363.961 715.639C369.283 711.206 372.324 704.612 372.24 697.687L370.091 520.842C370.007 513.862 366.756 507.298 361.256 502.999L223.702 395.501Z" stroke="url(#paint67_linear_19_79)" stroke-width="4"/>
<path d="M211.798 403.803C206.492 399.237 199.396 397.336 192.519 398.637L23.0551 430.702C16.1777 432.003 10.267 436.365 6.99641 442.553L-73.5937 595.037C-76.8643 601.226 -77.139 608.567 -74.34 614.982L-5.37033 773.062C-2.57132 779.478 2.99678 784.269 9.75776 786.081L176.352 830.72C183.113 832.531 190.33 831.165 195.962 827.009L334.732 724.592C340.363 720.436 343.796 713.941 344.058 706.947L350.507 534.597C350.768 527.602 347.831 520.869 342.525 516.303L211.798 403.803Z" stroke="url(#paint68_linear_19_79)" stroke-width="4"/>
</g>
<defs>
<linearGradient id="paint0_linear_19_79" x1="1718.91" y1="1148.24" x2="1535.03" y2="-12.7779" gradientUnits="userSpaceOnUse">
<stop stop-color="#1C42FF"/>
<stop offset="1" stop-color="#006BC3"/>
</linearGradient>
<linearGradient id="paint1_linear_19_79" x1="1667.15" y1="1147.5" x2="1545.36" y2="-11.2337" gradientUnits="userSpaceOnUse">
<stop stop-color="#1C42FF"/>
<stop offset="1" stop-color="#006BC3"/>
</linearGradient>
<linearGradient id="paint2_linear_19_79" x1="1615.74" y1="1145.17" x2="1555.31" y2="-7.98505" gradientUnits="userSpaceOnUse">
<stop stop-color="#1C42FF"/>
<stop offset="1" stop-color="#006BC3"/>
</linearGradient>
<linearGradient id="paint3_linear_19_79" x1="1564.78" y1="1141.29" x2="1564.78" y2="-3.06951" gradientUnits="userSpaceOnUse">
<stop stop-color="#1C42FF"/>
<stop offset="1" stop-color="#006BC3"/>
</linearGradient>
<linearGradient id="paint4_linear_19_79" x1="1514.34" y1="1135.9" x2="1573.69" y2="3.471" gradientUnits="userSpaceOnUse">
<stop stop-color="#1C42FF"/>
<stop offset="1" stop-color="#006BC3"/>
</linearGradient>
<linearGradient id="paint5_linear_19_79" x1="1464.51" y1="1129.05" x2="1581.96" y2="11.5901" gradientUnits="userSpaceOnUse">
<stop stop-color="#1C42FF"/>
<stop offset="1" stop-color="#006BC3"/>
</linearGradient>
<linearGradient id="paint6_linear_19_79" x1="1415.34" y1="1120.77" x2="1589.49" y2="21.2372" gradientUnits="userSpaceOnUse">
<stop stop-color="#1C42FF"/>
<stop offset="1" stop-color="#006BC3"/>
</linearGradient>
<linearGradient id="paint7_linear_19_79" x1="1366.93" y1="1111.12" x2="1596.23" y2="32.3576" gradientUnits="userSpaceOnUse">
<stop stop-color="#1C42FF"/>
<stop offset="1" stop-color="#006BC3"/>
</linearGradient>
<linearGradient id="paint8_linear_19_79" x1="1319.33" y1="1100.15" x2="1602.08" y2="44.8928" gradientUnits="userSpaceOnUse">
<stop stop-color="#1C42FF"/>
<stop offset="1" stop-color="#006BC3"/>
</linearGradient>
<linearGradient id="paint9_linear_19_79" x1="1272.61" y1="1087.93" x2="1607" y2="58.781" gradientUnits="userSpaceOnUse">
<stop stop-color="#1C42FF"/>
<stop offset="1" stop-color="#006BC3"/>
</linearGradient>
<linearGradient id="paint10_linear_19_79" x1="1226.82" y1="1074.51" x2="1610.9" y2="73.9568" gradientUnits="userSpaceOnUse">
<stop stop-color="#1C42FF"/>
<stop offset="1" stop-color="#006BC3"/>
</linearGradient>
<linearGradient id="paint11_linear_19_79" x1="1182.04" y1="1059.95" x2="1613.73" y2="90.3514" gradientUnits="userSpaceOnUse">
<stop stop-color="#1C42FF"/>
<stop offset="1" stop-color="#006BC3"/>
</linearGradient>
<linearGradient id="paint12_linear_19_79" x1="1138.3" y1="1044.33" x2="1615.44" y2="107.894" gradientUnits="userSpaceOnUse">
<stop stop-color="#1C42FF"/>
<stop offset="1" stop-color="#006BC3"/>
</linearGradient>
<linearGradient id="paint13_linear_19_79" x1="1095.66" y1="1027.71" x2="1615.96" y2="126.511" gradientUnits="userSpaceOnUse">
<stop stop-color="#1C42FF"/>
<stop offset="1" stop-color="#006BC3"/>
</linearGradient>
<linearGradient id="paint14_linear_19_79" x1="1054.16" y1="1010.16" x2="1615.27" y2="146.127" gradientUnits="userSpaceOnUse">
<stop stop-color="#1C42FF"/>
<stop offset="1" stop-color="#006BC3"/>
</linearGradient>
<linearGradient id="paint15_linear_19_79" x1="1013.84" y1="991.749" x2="1613.3" y2="166.663" gradientUnits="userSpaceOnUse">
<stop stop-color="#1C42FF"/>
<stop offset="1" stop-color="#006BC3"/>
</linearGradient>
<linearGradient id="paint16_linear_19_79" x1="974.732" y1="972.559" x2="1610.02" y2="188.04" gradientUnits="userSpaceOnUse">
<stop stop-color="#1C42FF"/>
<stop offset="1" stop-color="#006BC3"/>
</linearGradient>
<linearGradient id="paint17_linear_19_79" x1="936.873" y1="952.662" x2="1605.41" y2="210.177" gradientUnits="userSpaceOnUse">
<stop stop-color="#1C42FF"/>
<stop offset="1" stop-color="#006BC3"/>
</linearGradient>
<linearGradient id="paint18_linear_19_79" x1="900.285" y1="932.135" x2="1599.43" y2="232.992" gradientUnits="userSpaceOnUse">
<stop stop-color="#1C42FF"/>
<stop offset="1" stop-color="#006BC3"/>
</linearGradient>
<linearGradient id="paint19_linear_19_79" x1="864.992" y1="911.054" x2="1592.06" y2="256.401" gradientUnits="userSpaceOnUse">
<stop stop-color="#1C42FF"/>
<stop offset="1" stop-color="#006BC3"/>
</linearGradient>
<linearGradient id="paint20_linear_19_79" x1="831.009" y1="889.497" x2="1583.28" y2="280.323" gradientUnits="userSpaceOnUse">
<stop stop-color="#1C42FF"/>
<stop offset="1" stop-color="#006BC3"/>
</linearGradient>
<linearGradient id="paint21_linear_19_79" x1="798.349" y1="867.542" x2="1573.07" y2="304.672" gradientUnits="userSpaceOnUse">
<stop stop-color="#1C42FF"/>
<stop offset="1" stop-color="#006BC3"/>
</linearGradient>
<linearGradient id="paint22_linear_19_79" x1="767.019" y1="845.267" x2="1561.44" y2="329.365" gradientUnits="userSpaceOnUse">
<stop stop-color="#1C42FF"/>
<stop offset="1" stop-color="#006BC3"/>
</linearGradient>
<linearGradient id="paint23_linear_19_79" x1="737.025" y1="822.75" x2="1548.37" y2="354.319" gradientUnits="userSpaceOnUse">
<stop stop-color="#1C42FF"/>
<stop offset="1" stop-color="#006BC3"/>
</linearGradient>
<linearGradient id="paint24_linear_19_79" x1="708.364" y1="800.067" x2="1533.87" y2="379.451" gradientUnits="userSpaceOnUse">
<stop stop-color="#1C42FF"/>
<stop offset="1" stop-color="#006BC3"/>
</linearGradient>
<linearGradient id="paint25_linear_19_79" x1="681.03" y1="777.295" x2="1517.94" y2="404.679" gradientUnits="userSpaceOnUse">
<stop stop-color="#1C42FF"/>
<stop offset="1" stop-color="#006BC3"/>
</linearGradient>
<linearGradient id="paint26_linear_19_79" x1="655.015" y1="754.509" x2="1500.59" y2="429.921" gradientUnits="userSpaceOnUse">
<stop stop-color="#1C42FF"/>
<stop offset="1" stop-color="#006BC3"/>
</linearGradient>
<linearGradient id="paint27_linear_19_79" x1="630.305" y1="731.782" x2="1481.85" y2="455.1" gradientUnits="userSpaceOnUse">
<stop stop-color="#1C42FF"/>
<stop offset="1" stop-color="#006BC3"/>
</linearGradient>
<linearGradient id="paint28_linear_19_79" x1="606.881" y1="709.188" x2="1461.71" y2="480.137" gradientUnits="userSpaceOnUse">
<stop stop-color="#1C42FF"/>
<stop offset="1" stop-color="#006BC3"/>
</linearGradient>
<linearGradient id="paint29_linear_19_79" x1="584.722" y1="686.797" x2="1440.22" y2="504.955" gradientUnits="userSpaceOnUse">
<stop stop-color="#1C42FF"/>
<stop offset="1" stop-color="#006BC3"/>
</linearGradient>
<linearGradient id="paint30_linear_19_79" x1="563.801" y1="664.677" x2="1417.4" y2="529.481" gradientUnits="userSpaceOnUse">
<stop stop-color="#1C42FF"/>
<stop offset="1" stop-color="#006BC3"/>
</linearGradient>
<linearGradient id="paint31_linear_19_79" x1="544.09" y1="642.896" x2="1393.28" y2="553.644" gradientUnits="userSpaceOnUse">
<stop stop-color="#1C42FF"/>
<stop offset="1" stop-color="#006BC3"/>
</linearGradient>
<linearGradient id="paint32_linear_19_79" x1="525.556" y1="621.518" x2="1367.89" y2="577.373" gradientUnits="userSpaceOnUse">
<stop stop-color="#1C42FF"/>
<stop offset="1" stop-color="#006BC3"/>
</linearGradient>
<linearGradient id="paint33_linear_19_79" x1="508.161" y1="600.604" x2="1341.27" y2="600.604" gradientUnits="userSpaceOnUse">
<stop stop-color="#1C42FF"/>
<stop offset="1" stop-color="#006BC3"/>
</linearGradient>
<linearGradient id="paint34_linear_19_79" x1="491.868" y1="580.213" x2="1313.48" y2="623.272" gradientUnits="userSpaceOnUse">
<stop stop-color="#1C42FF"/>
<stop offset="1" stop-color="#006BC3"/>
</linearGradient>
<linearGradient id="paint35_linear_19_79" x1="476.631" y1="560.401" x2="1284.54" y2="645.316" gradientUnits="userSpaceOnUse">
<stop stop-color="#1C42FF"/>
<stop offset="1" stop-color="#006BC3"/>
</linearGradient>
<linearGradient id="paint36_linear_19_79" x1="462.408" y1="541.223" x2="1254.52" y2="666.681" gradientUnits="userSpaceOnUse">
<stop stop-color="#1C42FF"/>
<stop offset="1" stop-color="#006BC3"/>
</linearGradient>
<linearGradient id="paint37_linear_19_79" x1="449.149" y1="522.727" x2="1223.46" y2="687.312" gradientUnits="userSpaceOnUse">
<stop stop-color="#1C42FF"/>
<stop offset="1" stop-color="#006BC3"/>
</linearGradient>
<linearGradient id="paint38_linear_19_79" x1="436.804" y1="504.96" x2="1191.42" y2="707.159" gradientUnits="userSpaceOnUse">
<stop stop-color="#1C42FF"/>
<stop offset="1" stop-color="#006BC3"/>
</linearGradient>
<linearGradient id="paint39_linear_19_79" x1="425.32" y1="487.966" x2="1158.45" y2="726.176" gradientUnits="userSpaceOnUse">
<stop stop-color="#1C42FF"/>
<stop offset="1" stop-color="#006BC3"/>
</linearGradient>
<linearGradient id="paint40_linear_19_79" x1="414.643" y1="471.784" x2="1124.62" y2="744.319" gradientUnits="userSpaceOnUse">
<stop stop-color="#1C42FF"/>
<stop offset="1" stop-color="#006BC3"/>
</linearGradient>
<linearGradient id="paint41_linear_19_79" x1="404.716" y1="456.451" x2="1089.98" y2="761.549" gradientUnits="userSpaceOnUse">
<stop stop-color="#1C42FF"/>
<stop offset="1" stop-color="#006BC3"/>
</linearGradient>
<linearGradient id="paint42_linear_19_79" x1="395.481" y1="441.999" x2="1054.59" y2="777.833" gradientUnits="userSpaceOnUse">
<stop stop-color="#1C42FF"/>
<stop offset="1" stop-color="#006BC3"/>
</linearGradient>
<linearGradient id="paint43_linear_19_79" x1="386.88" y1="428.457" x2="1018.53" y2="793.138" gradientUnits="userSpaceOnUse">
<stop stop-color="#1C42FF"/>
<stop offset="1" stop-color="#006BC3"/>
</linearGradient>
<linearGradient id="paint44_linear_19_79" x1="378.851" y1="415.85" x2="981.845" y2="807.439" gradientUnits="userSpaceOnUse">
<stop stop-color="#1C42FF"/>
<stop offset="1" stop-color="#006BC3"/>
</linearGradient>
<linearGradient id="paint45_linear_19_79" x1="371.334" y1="404.199" x2="944.613" y2="820.711" gradientUnits="userSpaceOnUse">
<stop stop-color="#1C42FF"/>
<stop offset="1" stop-color="#006BC3"/>
</linearGradient>
<linearGradient id="paint46_linear_19_79" x1="364.266" y1="393.522" x2="906.899" y2="832.937" gradientUnits="userSpaceOnUse">
<stop stop-color="#1C42FF"/>
<stop offset="1" stop-color="#006BC3"/>
</linearGradient>
<linearGradient id="paint47_linear_19_79" x1="357.586" y1="383.832" x2="868.767" y2="844.102" gradientUnits="userSpaceOnUse">
<stop stop-color="#1C42FF"/>
<stop offset="1" stop-color="#006BC3"/>
</linearGradient>
<linearGradient id="paint48_linear_19_79" x1="351.231" y1="375.139" x2="830.287" y2="854.195" gradientUnits="userSpaceOnUse">
<stop stop-color="#1C42FF"/>
<stop offset="1" stop-color="#006BC3"/>
</linearGradient>
<linearGradient id="paint49_linear_19_79" x1="345.138" y1="367.448" x2="791.524" y2="863.209" gradientUnits="userSpaceOnUse">
<stop stop-color="#1C42FF"/>
<stop offset="1" stop-color="#006BC3"/>
</linearGradient>
<linearGradient id="paint50_linear_19_79" x1="339.247" y1="360.763" x2="752.545" y2="871.144" gradientUnits="userSpaceOnUse">
<stop stop-color="#1C42FF"/>
<stop offset="1" stop-color="#006BC3"/>
</linearGradient>
<linearGradient id="paint51_linear_19_79" x1="333.494" y1="355.081" x2="713.416" y2="878" gradientUnits="userSpaceOnUse">
<stop stop-color="#1C42FF"/>
<stop offset="1" stop-color="#006BC3"/>
</linearGradient>
<linearGradient id="paint52_linear_19_79" x1="327.82" y1="350.398" x2="674.203" y2="883.782" gradientUnits="userSpaceOnUse">
<stop stop-color="#1C42FF"/>
<stop offset="1" stop-color="#006BC3"/>
</linearGradient>
<linearGradient id="paint53_linear_19_79" x1="322.164" y1="346.704" x2="634.971" y2="888.5" gradientUnits="userSpaceOnUse">
<stop stop-color="#1C42FF"/>
<stop offset="1" stop-color="#006BC3"/>
</linearGradient>
<linearGradient id="paint54_linear_19_79" x1="316.469" y1="343.988" x2="595.781" y2="892.168" gradientUnits="userSpaceOnUse">
<stop stop-color="#1C42FF"/>
<stop offset="1" stop-color="#006BC3"/>
</linearGradient>
<linearGradient id="paint55_linear_19_79" x1="310.676" y1="342.233" x2="556.696" y2="894.802" gradientUnits="userSpaceOnUse">
<stop stop-color="#1C42FF"/>
<stop offset="1" stop-color="#006BC3"/>
</linearGradient>
<linearGradient id="paint56_linear_19_79" x1="304.73" y1="341.421" x2="517.775" y2="896.423" gradientUnits="userSpaceOnUse">
<stop stop-color="#1C42FF"/>
<stop offset="1" stop-color="#006BC3"/>
</linearGradient>
<linearGradient id="paint57_linear_19_79" x1="298.577" y1="341.53" x2="479.077" y2="897.054" gradientUnits="userSpaceOnUse">
<stop stop-color="#1C42FF"/>
<stop offset="1" stop-color="#006BC3"/>
</linearGradient>
<linearGradient id="paint58_linear_19_79" x1="292.164" y1="342.534" x2="440.658" y2="896.722" gradientUnits="userSpaceOnUse">
<stop stop-color="#1C42FF"/>
<stop offset="1" stop-color="#006BC3"/>
</linearGradient>
<linearGradient id="paint59_linear_19_79" x1="285.442" y1="344.406" x2="402.572" y2="895.457" gradientUnits="userSpaceOnUse">
<stop stop-color="#1C42FF"/>
<stop offset="1" stop-color="#006BC3"/>
</linearGradient>
<linearGradient id="paint60_linear_19_79" x1="278.363" y1="347.114" x2="364.87" y2="893.294" gradientUnits="userSpaceOnUse">
<stop stop-color="#1C42FF"/>
<stop offset="1" stop-color="#006BC3"/>
</linearGradient>
<linearGradient id="paint61_linear_19_79" x1="270.881" y1="350.626" x2="327.6" y2="890.266" gradientUnits="userSpaceOnUse">
<stop stop-color="#1C42FF"/>
<stop offset="1" stop-color="#006BC3"/>
</linearGradient>
<linearGradient id="paint62_linear_19_79" x1="262.954" y1="354.905" x2="290.809" y2="886.413" gradientUnits="userSpaceOnUse">
<stop stop-color="#1C42FF"/>
<stop offset="1" stop-color="#006BC3"/>
</linearGradient>
<linearGradient id="paint63_linear_19_79" x1="254.541" y1="359.914" x2="254.541" y2="881.777" gradientUnits="userSpaceOnUse">
<stop stop-color="#1C42FF"/>
<stop offset="1" stop-color="#006BC3"/>
</linearGradient>
<linearGradient id="paint64_linear_19_79" x1="245.604" y1="365.612" x2="218.835" y2="876.399" gradientUnits="userSpaceOnUse">
<stop stop-color="#1C42FF"/>
<stop offset="1" stop-color="#006BC3"/>
</linearGradient>
<linearGradient id="paint65_linear_19_79" x1="236.11" y1="371.958" x2="183.729" y2="870.325" gradientUnits="userSpaceOnUse">
<stop stop-color="#1C42FF"/>
<stop offset="1" stop-color="#006BC3"/>
</linearGradient>
<linearGradient id="paint66_linear_19_79" x1="226.025" y1="378.907" x2="149.257" y2="863.603" gradientUnits="userSpaceOnUse">
<stop stop-color="#1C42FF"/>
<stop offset="1" stop-color="#006BC3"/>
</linearGradient>
<linearGradient id="paint67_linear_19_79" x1="215.323" y1="386.415" x2="115.45" y2="856.28" gradientUnits="userSpaceOnUse">
<stop stop-color="#1C42FF"/>
<stop offset="1" stop-color="#006BC3"/>
</linearGradient>
<linearGradient id="paint68_linear_19_79" x1="203.977" y1="394.434" x2="82.3349" y2="848.407" gradientUnits="userSpaceOnUse">
<stop stop-color="#1C42FF"/>
<stop offset="1" stop-color="#006BC3"/>
</linearGradient>
<clipPath id="clip0_19_79">
<rect width="1724" height="1073" fill="white"/>
</clipPath>
</defs>
</svg>
